<?xml version="1.0" standalone="no"?>
<!DOCTYPE svg PUBLIC "-//W3C//DTD SVG 20010904//EN"
 "http://www.w3.org/TR/2001/REC-SVG-20010904/DTD/svg10.dtd">
<svg version="1.0" xmlns="http://www.w3.org/2000/svg"
 width="512.000000pt" height="512.000000pt" viewBox="0 0 512.000000 512.000000"
 preserveAspectRatio="xMidYMid meet">
<metadata>
Created by potrace 1.14, written by Peter Selinger 2001-2017
</metadata>
<g transform="translate(0.000000,512.000000) scale(0.100000,-0.100000)"
fill="#000000" stroke="none">
<path d="M803 4645 c-41 -29 -37 -57 23 -182 31 -64 85 -158 120 -210 l63 -94
-41 -37 c-49 -43 -70 -64 -121 -120 l-37 -41 21 -44 22 -44 -66 -78 -67 -78
23 -41 c57 -106 169 -233 262 -296 66 -46 192 -100 219 -94 84 19 82 19 143
-36 51 -46 82 -83 57 -67 -5 3 -81 8 -169 11 -88 4 -200 9 -250 11 -49 2 -166
6 -260 10 -93 3 -207 8 -253 11 l-83 4 6 -37 c3 -21 12 -69 20 -108 8 -38 17
-86 20 -105 3 -19 10 -54 16 -78 5 -23 12 -59 15 -80 3 -20 7 -44 9 -52 4 -14
70 -351 81 -410 2 -14 7 -36 9 -50 12 -61 16 -77 21 -105 3 -16 26 -133 51
-260 25 -126 47 -241 49 -255 3 -14 9 -47 14 -75 6 -27 12 -61 15 -75 3 -14 9
-47 15 -75 5 -27 12 -63 15 -80 3 -16 7 -41 10 -55 3 -14 19 -97 36 -185 17
-88 33 -162 35 -164 4 -4 154 13 214 23 14 3 63 10 110 16 47 6 100 14 118 16
17 3 32 2 33 -3 0 -4 2 -24 4 -43 2 -19 7 -62 10 -95 8 -79 26 -176 37 -198
11 -21 4 -24 -82 -32 -130 -13 -194 -23 -262 -40 -81 -22 -108 -35 -108 -56 0
-33 111 -62 360 -94 38 -5 106 -10 280 -22 233 -16 1126 -7 1240 12 14 2 54 6
90 9 222 19 380 59 380 96 0 17 -55 46 -105 56 -11 2 -31 6 -45 9 -24 5 -134
21 -210 30 -34 4 -116 11 -254 20 -38 3 -71 6 -73 8 -2 2 14 24 35 48 86 100
217 354 237 460 11 61 10 60 115 73 66 8 75 13 77 46 0 14 4 72 7 130 3 58 8
134 11 170 3 36 7 97 10 135 3 39 8 106 11 150 2 44 6 103 9 130 2 28 7 100
11 160 4 61 7 121 8 135 2 25 2 25 115 27 116 2 143 6 139 21 -2 5 12 21 29
36 26 22 39 26 63 21 35 -8 216 -77 259 -100 28 -14 31 -14 41 4 5 11 10 32
10 48 0 24 -9 34 -57 63 -32 19 -78 45 -102 57 -24 13 -47 26 -50 29 -11 11
166 -24 252 -50 47 -14 48 -14 57 9 5 12 7 31 5 41 -2 11 -4 22 -4 26 -1 3
-47 24 -103 46 -57 22 -110 42 -118 46 -8 3 39 3 104 0 l119 -6 -6 42 c-6 49
-14 55 -76 66 -25 4 -48 8 -51 9 -55 15 -142 25 -255 29 -55 3 -102 5 -104 5
-2 1 22 28 53 61 31 34 59 72 62 85 7 30 12 31 151 27 88 -3 114 -6 110 -16
-3 -7 -1 -19 4 -27 6 -10 9 -7 9 14 0 15 5 27 11 27 5 0 7 -4 4 -10 -3 -5 -3
-10 2 -11 4 0 19 -2 31 -3 13 -2 26 3 29 11 4 11 52 13 256 13 249 -1 266 1
267 32 0 4 -29 9 -65 11 l-65 3 67 0 c75 -1 71 4 60 -76 -6 -39 -5 -41 3 -15
6 17 13 47 16 68 l6 37 -77 0 c-68 0 -76 2 -71 18 3 9 8 35 12 57 3 22 15 59
26 83 10 24 17 57 15 75 -5 50 35 211 54 215 13 2 16 -4 13 -25 -2 -17 -1 -20
3 -8 3 11 10 23 16 27 6 4 80 6 164 6 85 0 156 2 160 6 3 3 -68 6 -159 6 -150
0 -166 2 -164 17 2 15 20 17 149 17 80 1 148 4 151 7 3 3 -57 5 -134 4 -139
-1 -168 3 -156 23 3 5 8 26 12 47 3 20 15 76 27 123 l22 87 50 3 c28 2 52 6
55 8 11 12 -25 21 -56 14 -39 -9 -44 -6 -37 21 4 14 12 19 24 16 11 -3 22 -1
25 4 3 5 -7 9 -21 9 -15 0 -24 4 -20 10 4 6 10 8 14 6 4 -3 13 0 21 6 12 8 12
9 -2 4 -10 -3 -20 -1 -23 4 -4 6 4 11 17 11 17 1 18 3 6 6 -23 6 -23 10 13
160 16 70 39 166 50 213 11 47 22 93 25 104 6 17 1 18 -87 12 -52 -4 -110 -9
-129 -11 -19 -2 -78 -7 -130 -10 -52 -3 -106 -8 -120 -10 -14 -2 -65 -6 -115
-10 -49 -3 -112 -8 -140 -10 -56 -5 -120 -11 -245 -20 -47 -4 -101 -9 -120
-11 -19 -1 -80 -6 -135 -9 -55 -3 -110 -8 -122 -10 -12 -2 -68 -7 -125 -10
-57 -4 -107 -10 -111 -12 -4 -3 -6 -22 -4 -44 4 -42 4 -42 -60 -42 -19 1 -33
-4 -33 -11 0 -22 24 -36 63 -36 43 0 49 -23 6 -28 -17 -1 -40 13 -79 48 -191
175 -469 302 -735 337 -64 9 -275 8 -340 -1 -203 -29 -421 -107 -614 -220 -71
-42 -63 -44 -147 39 -71 70 -142 159 -194 243 -25 39 -47 71 -50 72 -3 0 -15
-7 -27 -15z m3758 -273 c-5 -15 -28 -118 -51 -229 -36 -169 -46 -203 -61 -203
-19 0 -19 1 23 165 11 44 22 91 23 105 5 41 16 103 25 138 l9 34 -47 -6 c-26
-3 -76 -8 -112 -12 -36 -3 -81 -7 -100 -9 -19 -2 -72 -6 -117 -10 -45 -3 -90
-7 -100 -9 -10 -2 -61 -7 -113 -11 -52 -3 -108 -8 -124 -10 -16 -2 -63 -6
-105 -10 -42 -4 -92 -8 -111 -10 -19 -2 -73 -6 -119 -10 -46 -4 -91 -8 -100
-10 -9 -1 -58 -6 -110 -10 -51 -4 -101 -9 -110 -10 -9 -2 -31 -4 -50 -4 -24
-1 -32 -5 -28 -15 6 -15 -16 -30 -27 -19 -3 4 -6 19 -6 35 0 25 4 28 33 29 17
0 43 2 57 4 14 1 66 6 115 10 50 3 106 8 125 10 64 7 174 16 235 20 56 3 108
8 245 20 30 3 87 7 125 10 39 3 90 7 115 10 25 2 79 7 120 10 41 4 95 8 120
10 25 2 79 7 120 11 41 3 77 7 78 9 2 2 10 1 17 -1 9 -4 11 -14 6 -32z m-1481
-217 c-12 -15 -30 -12 -30 6 0 5 10 9 21 9 18 0 19 -2 9 -15z m6 -56 c3 -6 0
-15 -7 -20 -13 -7 -28 5 -29 24 0 11 28 8 36 -4z m-1 -39 c3 -6 -4 -10 -17
-10 -18 0 -20 2 -8 10 19 12 18 12 25 0z m0 -30 c-3 -5 -13 -10 -21 -10 -8 0
-14 5 -14 10 0 6 9 10 21 10 11 0 17 -4 14 -10z m3 -82 c1 -61 1 -62 -16 -42
-11 13 -17 35 -16 60 3 47 1 44 17 44 9 0 13 -19 15 -62z m-61 23 c0 -11 -5
-17 -9 -15 -11 7 -10 34 1 34 6 0 9 -9 8 -19z m1433 -51 c0 -5 -7 -10 -15 -10
-8 0 -15 5 -15 10 0 6 7 10 15 10 8 0 15 -4 15 -10z m-9 -52 c-7 -34 -42 -54
-37 -22 2 10 8 20 15 22 9 3 9 7 0 18 -9 11 -7 14 9 14 17 0 19 -4 13 -32z
m-43 -195 c-16 -75 -30 -138 -31 -140 -2 -1 -8 1 -14 5 -9 6 -6 38 13 132 24
119 37 155 54 145 4 -2 -6 -66 -22 -142z m-1313 -373 l0 -175 -85 1 c-47 1
-168 4 -270 9 -163 6 -209 9 -244 14 -5 0 2 11 15 24 29 28 113 124 167 193
34 43 45 51 66 47 45 -9 188 119 269 242 15 22 27 35 28 30 2 -25 6 -109 10
-207 2 -60 7 -108 10 -108 4 0 5 82 3 182 -3 131 -1 191 8 217 12 33 13 20 18
-129 3 -91 5 -244 5 -340z m1275 204 c0 -8 -6 -14 -14 -14 -12 0 -14 10 -7 38
3 10 21 -11 21 -24z m-1185 -574 c-14 -23 -31 -10 -27 20 4 30 5 30 19 10 8
-11 11 -25 8 -30z m-824 -1856 c17 -96 42 -265 51 -347 l3 -27 -367 -3 -367
-2 23 25 c132 146 213 258 261 362 l24 53 173 25 c95 14 174 25 176 24 2 -1
12 -51 23 -110z"/>
<path d="M3063 3295 c0 -38 2 -53 4 -32 2 20 2 52 0 70 -2 17 -4 1 -4 -38z"/>
<path d="M3061 3204 c0 -11 3 -14 6 -6 3 7 2 16 -1 19 -3 4 -6 -2 -5 -13z"/>
<path d="M4490 3596 c0 -19 14 -22 100 -22 63 1 75 4 78 19 3 15 -6 17 -87 17
-71 0 -91 -3 -91 -14z"/>
<path d="M4408 3503 c7 -3 16 -2 19 1 4 3 -2 6 -13 5 -11 0 -14 -3 -6 -6z"/>
<path d="M4488 3503 c7 -3 16 -2 19 1 4 3 -2 6 -13 5 -11 0 -14 -3 -6 -6z"/>
<path d="M4558 3503 c7 -3 16 -2 19 1 4 3 -2 6 -13 5 -11 0 -14 -3 -6 -6z"/>
<path d="M4346 3383 c-6 -14 -5 -15 5 -6 7 7 10 15 7 18 -3 3 -9 -2 -12 -12z"/>
<path d="M3900 2951 c0 -6 12 -11 28 -12 15 0 61 -2 102 -4 292 -15 308 -16
315 -5 4 6 5 14 2 17 -11 11 -447 15 -447 4z"/>
<path d="M3780 2909 c0 -5 -4 -7 -10 -4 -5 3 -10 1 -10 -5 0 -7 8 -9 23 -4 12
5 32 8 44 7 13 0 20 3 17 8 -7 13 -64 11 -64 -2z"/>
<path d="M3890 2908 c0 -4 5 -8 11 -8 5 0 8 -4 5 -8 -3 -5 1 -9 9 -9 8 0 15 3
15 6 0 11 125 -1 132 -13 6 -8 8 -8 8 2 0 6 4 12 10 12 5 0 7 -8 4 -17 -5 -16
-4 -16 5 -2 6 10 22 14 43 13 192 -15 210 -14 206 3 -3 15 -18 18 -123 20 -66
2 -166 4 -222 6 -57 2 -103 -1 -103 -5z"/>
<path d="M3828 2883 c6 -2 18 -2 25 0 6 3 1 5 -13 5 -14 0 -19 -2 -12 -5z"/>
<path d="M3968 2873 c7 -3 16 -2 19 1 4 3 -2 6 -13 5 -11 0 -14 -3 -6 -6z"/>
<path d="M4118 2863 c7 -3 16 -2 19 1 4 3 -2 6 -13 5 -11 0 -14 -3 -6 -6z"/>
<path d="M4158 2863 c6 -2 18 -2 25 0 6 3 1 5 -13 5 -14 0 -19 -2 -12 -5z"/>
<path d="M4342 2854 c-7 -8 -8 -14 -3 -14 10 0 25 19 20 25 -2 1 -10 -3 -17
-11z"/>
<path d="M4238 2853 c6 -2 18 -2 25 0 6 3 1 5 -13 5 -14 0 -19 -2 -12 -5z"/>
</g>
</svg>
